<svg id="Layer_1" data-name="Layer 1" xmlns="http://www.w3.org/2000/svg" width="1213.18" height="333.19" viewBox="0 0 1213.18 333.19"><title>bayleaf_logo</title><path d="M14.47,120.9a62,62,0,0,1,5-24.56A65.64,65.64,0,0,1,32.94,76a62.44,62.44,0,0,1,20-13.71,61.63,61.63,0,0,1,24.75-5h147V260.65a64.16,64.16,0,0,1-4.76,24.56,59.47,59.47,0,0,1-13.52,20.18,63.59,63.59,0,0,1-21.13,13.52,73.72,73.72,0,0,1-27.61,5H14.47ZM77.3,157.84h84.54V120.52H101.29q-9.14.39-13.9,4a23.81,23.81,0,0,0-7,8.27,30.53,30.53,0,0,0-3,11.93Zm60.55,102.81q9.14,0,13.9-1.71a14.16,14.16,0,0,0,7-5,15.23,15.23,0,0,0,2.67-7.62q.37-4.37.38-9.71V221H77.3v39.6Z" transform="translate(-14.47 -57.31)" style="fill:#fff"/><path d="M415.44,323.86a42.28,42.28,0,0,1-9.52-1.14,44.76,44.76,0,0,1-9.33-3.24,37,37,0,0,1-8-5.14,18.27,18.27,0,0,1-5.14-6.47q-3.43,8-13.14,12a48.54,48.54,0,0,1-18.47,4H231.52V197.06a62,62,0,0,1,5-24.56A65.64,65.64,0,0,1,250,152.12a62.44,62.44,0,0,1,20-13.71,61.63,61.63,0,0,1,24.75-5H415.06V236.66q.37,11.42,6.09,17.71t17.9,6.28H452v63.21ZM294.35,260.65h33.89q12.18,0,17.71-5.94t6.28-17v-41H318.34q-9.14.38-13.9,4a23.75,23.75,0,0,0-7,8.23,30.32,30.32,0,0,0-3,11.88Z" transform="translate(-14.47 -57.31)" style="fill:#fff"/><path d="M488.17,323.86H425V133.46h62.83V260.65h49.12q12.18,0,17.9-6.28t6.09-17.71V133.46h62.83V260.65a62,62,0,0,1-5,24.56,62.61,62.61,0,0,1-33.7,33.7,62,62,0,0,1-24.56,5h-9.14V390.5H488.17Z" transform="translate(-14.47 -57.31)" style="fill:#fff"/><path d="M631.34,57.31h62.83V323.86H631.34Z" transform="translate(-14.47 -57.31)" style="fill:#fff"/><path d="M889.52,246.94H766.9a20.83,20.83,0,0,0,2.09,9.6q2.09,4.11,12,4.11H889.52v63.21H765a61.53,61.53,0,0,1-24.75-5,62.25,62.25,0,0,1-20-13.71A66.19,66.19,0,0,1,706.74,285a61.53,61.53,0,0,1-5-24.75V197.06a62,62,0,0,1,5-24.56,65.64,65.64,0,0,1,13.52-20.37,62.44,62.44,0,0,1,20-13.71,61.63,61.63,0,0,1,24.75-5h61.31A62.57,62.57,0,0,1,871,152.12a65.76,65.76,0,0,1,13.52,20.37,62.09,62.09,0,0,1,5,24.56ZM781,194q-4.57,0-7,1.9a11.76,11.76,0,0,0-3.62,4.38,15,15,0,0,0-1.33,5.33c-.13,1.9-.19,3.62-.19,5.14h55.6q0-1.9-.19-4.76a16.86,16.86,0,0,0-1.33-5.52,11,11,0,0,0-3.81-4.57q-2.67-1.9-7.62-1.9Z" transform="translate(-14.47 -57.31)" style="fill:#fff"/><path d="M1078.39,323.86a42.29,42.29,0,0,1-9.52-1.14,44.78,44.78,0,0,1-9.33-3.24,37,37,0,0,1-8-5.14,18.26,18.26,0,0,1-5.14-6.47q-3.43,8-13.14,12a48.54,48.54,0,0,1-18.47,4H894.47V197.06a62,62,0,0,1,5-24.56,65.63,65.63,0,0,1,13.52-20.37,62.44,62.44,0,0,1,20-13.71,61.64,61.64,0,0,1,24.75-5H1078V236.66q.38,11.42,6.09,17.71t17.9,6.28h12.95v63.21ZM957.3,260.65h33.89q12.18,0,17.71-5.94t6.28-17v-41H981.29q-9.14.38-13.9,4a23.77,23.77,0,0,0-7,8.23,30.33,30.33,0,0,0-3,11.88Z" transform="translate(-14.47 -57.31)" style="fill:#fff"/><path d="M1220,215.72h-48.36V323.86h-62.83V215.72h-23.61V152.5h23.61v-32a62,62,0,0,1,5-24.56,63.31,63.31,0,0,1,13.52-20.18,64,64,0,0,1,20-13.52,61.64,61.64,0,0,1,24.75-5h55.59v63.21h-32q-12.19,0-17.9,6.28t-6.09,17.71v8H1220Z" transform="translate(-14.47 -57.31)" style="fill:#fff"/></svg>